# xmcd
#
# Track frame offsets:
#	150
#	14877
#	32207
#	53780
#	76172
#	95012
#	112735
#	139717
#	157962
#	180590
#	209862
#	225487
#
# Disc length: 3316 seconds
#
# Revision: 1
# Processed by: cddbd v1.5.1PL2 Copyright (c) Steve Scherf et al.
# Submitted via: audiograbber 1.83.01
#
DISCID=9b0cf20c
DTITLE=The Children's Gospel Choir - Children, Go!
DYEAR=1996
DGENRE=Gospel
TTITLE0=We've Come This Far
TTITLE1=Jesus Loves Me
TTITLE2=His Eye Is On The Sparrow
TTITLE3=God Will Answer Prayer
TTITLE4=Joy, Peace, Love
TTITLE5=Lo, How A Rose
TTITLE6=Children, Go Where I Send Thee
TTITLE7=Oh, Fix Me
TTITLE8=There Is A Balm
TTITLE9=Rain!
TTITLE10=Get Right Church
TTITLE11=O Come All Ye Faithful
EXTD=
EXTT0=
EXTT1=
EXTT2=
EXTT3=
EXTT4=
EXTT5=
EXTT6=
EXTT7=
EXTT8=
EXTT9=
EXTT10=
EXTT11=
PLAYORDER=
